<?xml version="1.0" encoding="UTF-8"?>
<svg width="102px" height="17px" data-percent="88" viewBox="0 0 102 17" version="1.1" xmlns="http://www.w3.org/2000/svg" xmlns:xlink="http://www.w3.org/1999/xlink">
    <title>Star-Rating-SVG</title>
    <desc>One SVG file and nothing more.</desc>
    <defs>
        <path d="M30,13.5 L24.7099327,16.2811529 L25.7202457,10.3905765 L21.4404914,6.21884705 L27.3549664,5.35942353 L30,0 L32.6450336,5.35942353 L38.5595086,6.21884705 L34.2797543,10.3905765 L35.2900673,16.2811529 L30,13.5 Z M9,13.5 L3.70993273,16.2811529 L4.72024568,10.3905765 L0.440491353,6.21884705 L6.35496636,5.35942353 L9,0 L11.6450336,5.35942353 L17.5595086,6.21884705 L13.2797543,10.3905765 L14.2900673,16.2811529 L9,13.5 Z M51,13.5 L45.7099327,16.2811529 L46.7202457,10.3905765 L42.4404914,6.21884705 L48.3549664,5.35942353 L51,0 L53.6450336,5.35942353 L59.5595086,6.21884705 L55.2797543,10.3905765 L56.2900673,16.2811529 L51,13.5 Z M72,13.5 L66.7099327,16.2811529 L67.7202457,10.3905765 L63.4404914,6.21884705 L69.3549664,5.35942353 L72,0 L74.6450336,5.35942353 L80.5595086,6.21884705 L76.2797543,10.3905765 L77.2900673,16.2811529 L72,13.5 Z M93,13.5 L87.7099327,16.2811529 L88.7202457,10.3905765 L84.4404914,6.21884705 L90.3549664,5.35942353 L93,0 L95.6450336,5.35942353 L101.559509,6.21884705 L97.2797543,10.3905765 L98.2900673,16.2811529 L93,13.5 Z" id="path-1"></path>
    </defs>
    <g stroke="none" stroke-width="1" fill="none" fill-rule="evenodd">
        <g transform="translate(-1140.000000, -90.000000)">
            <g transform="translate(1140.000000, 90.000000)">
                <mask id="mask-2" fill="white">
                    <use xlink:href="#path-1"></use>
                </mask>
                <path stroke="#FCD81D" d="M34.6260018,15.3671452 L33.742514,10.2160165 L37.4850281,6.56796695 L32.3130009,5.81642741 L30,1.12977573 L27.6869991,5.81642741 L22.5149719,6.56796695 L26.257486,10.2160165 L25.3739982,15.3671452 L30,12.9351121 L34.6260018,15.3671452 Z M13.6260018,15.3671452 L12.742514,10.2160165 L16.4850281,6.56796695 L11.3130009,5.81642741 L9,1.12977573 L6.68699912,5.81642741 L1.51497192,6.56796695 L5.25748596,10.2160165 L4.37399824,15.3671452 L9,12.9351121 L13.6260018,15.3671452 Z M55.6260018,15.3671452 L54.742514,10.2160165 L58.4850281,6.56796695 L53.3130009,5.81642741 L51,1.12977573 L48.6869991,5.81642741 L43.5149719,6.56796695 L47.257486,10.2160165 L46.3739982,15.3671452 L51,12.9351121 L55.6260018,15.3671452 Z M76.6260018,15.3671452 L75.742514,10.2160165 L79.4850281,6.56796695 L74.3130009,5.81642741 L72,1.12977573 L69.6869991,5.81642741 L64.5149719,6.56796695 L68.257486,10.2160165 L67.3739982,15.3671452 L72,12.9351121 L76.6260018,15.3671452 Z M97.6260018,15.3671452 L96.742514,10.2160165 L100.485028,6.56796695 L95.3130009,5.81642741 L93,1.12977573 L90.6869991,5.81642741 L85.5149719,6.56796695 L89.257486,10.2160165 L88.3739982,15.3671452 L93,12.9351121 L97.6260018,15.3671452 Z"></path>
                <rect id="percent-rect" fill="#FCD81D" mask="url(#mask-2)" x="0.439941406" y="0" width="101.120003" height="16.2800007"></rect>
            </g>
        </g>
    </g>
    <script>//<![CDATA[
        var svg = document.firstElementChild;
        var percent = document.defaultView.location.href.split('?')[1].split('=')[1] || 100;
        document.getElementById('percent-rect').setAttribute('width', percent + '%');
    ]]></script>
</svg>